<svg id="svg" version="1.1" xmlns="http://www.w3.org/2000/svg" xmlns:xlink="http://www.w3.org/1999/xlink" width="400" height="400" viewBox="0, 0, 400,400"><g id="svgg"><path id="path0" d="M0.000 200.000 L 0.000 400.000 200.000 400.000 L 400.000 400.000 400.000 200.000 L 400.000 0.000 200.000 0.000 L 0.000 0.000 0.000 200.000 M212.125 33.571 C 212.676 33.781,213.289 34.479,213.530 35.171 C 213.933 36.326,214.081 36.400,215.997 36.400 C 218.141 36.400,220.000 37.599,220.000 38.982 C 220.000 39.458,220.465 39.600,222.026 39.600 C 224.532 39.600,225.396 40.040,225.937 41.592 L 226.358 42.800 231.546 42.800 C 237.599 42.800,237.850 42.866,238.594 44.649 L 239.159 46.000 242.918 46.000 C 246.903 46.000,247.726 46.352,248.064 48.200 C 248.200 48.946,248.571 49.008,253.579 49.112 C 259.167 49.229,259.795 49.410,260.432 51.084 C 260.760 51.946,260.995 52.000,264.408 52.000 C 268.208 52.000,270.000 52.827,270.000 54.582 C 270.000 55.058,270.465 55.200,272.026 55.200 C 274.532 55.200,275.396 55.640,275.937 57.192 C 276.206 57.963,276.633 58.400,277.117 58.400 C 278.013 58.400,279.058 59.472,279.262 60.600 C 279.378 61.240,279.767 61.421,281.203 61.505 C 284.225 61.683,284.758 61.926,285.377 63.407 C 285.934 64.740,286.047 64.800,288.006 64.800 C 290.435 64.800,291.600 65.330,291.600 66.434 C 291.600 66.977,292.056 67.431,292.993 67.823 C 293.912 68.207,294.475 68.759,294.647 69.445 C 294.815 70.113,295.376 70.681,296.211 71.030 C 297.051 71.381,297.663 72.005,297.936 72.787 C 298.322 73.896,298.514 74.000,300.160 74.000 C 302.481 74.000,303.876 74.650,304.183 75.876 C 304.336 76.485,304.878 77.008,305.627 77.269 C 306.411 77.543,307.022 78.157,307.392 79.044 C 307.704 79.790,308.179 80.400,308.448 80.400 C 309.204 80.400,310.400 81.644,310.400 82.430 C 310.400 82.894,310.824 83.230,311.637 83.408 C 312.534 83.605,313.026 84.042,313.424 84.996 C 313.782 85.853,314.400 86.461,315.193 86.738 C 316.078 87.046,316.478 87.489,316.650 88.349 C 316.814 89.170,317.188 89.611,317.865 89.780 C 318.402 89.915,319.200 90.632,319.637 91.374 C 320.075 92.115,320.882 92.834,321.430 92.972 C 322.618 93.270,323.200 94.596,323.200 97.004 C 323.200 98.520,323.348 98.827,324.296 99.282 C 324.899 99.571,325.629 100.300,325.917 100.901 C 326.205 101.503,326.901 102.111,327.464 102.252 C 328.120 102.416,328.686 102.988,329.045 103.847 C 329.409 104.716,329.970 105.278,330.645 105.447 C 331.312 105.614,331.881 106.175,332.229 107.007 C 332.574 107.833,333.146 108.400,333.800 108.564 C 335.023 108.871,335.600 110.172,335.600 112.621 C 335.600 114.250,335.706 114.433,336.946 114.952 C 337.755 115.290,338.391 115.890,338.540 116.457 C 338.682 116.995,339.350 117.658,340.094 118.000 C 341.330 118.568,341.411 118.737,341.600 121.145 C 341.791 123.581,341.859 123.718,343.184 124.345 C 344.045 124.753,344.655 125.376,344.801 125.998 C 344.933 126.560,345.377 127.058,345.818 127.139 C 347.434 127.435,348.000 128.401,348.000 130.862 C 348.000 132.704,348.131 133.200,348.618 133.200 C 350.055 133.200,351.200 135.055,351.200 137.382 C 351.200 139.116,351.335 139.600,351.818 139.600 C 353.201 139.600,354.400 141.459,354.400 143.603 C 354.400 145.519,354.474 145.667,355.629 146.070 C 357.228 146.627,357.600 147.712,357.600 151.818 C 357.600 155.085,357.630 155.192,358.611 155.438 C 360.159 155.827,360.400 156.737,360.400 162.194 L 360.400 167.241 361.751 167.806 C 363.700 168.620,363.600 166.525,363.600 206.571 C 363.600 246.989,363.747 244.436,361.400 244.863 C 360.684 244.994,360.589 245.366,360.500 248.404 C 360.364 253.001,360.190 253.575,358.786 254.065 C 357.717 254.437,357.600 254.650,357.600 256.213 C 357.600 258.681,357.047 259.836,355.629 260.330 C 354.503 260.722,354.400 260.909,354.400 262.553 C 354.400 265.176,353.826 266.375,352.439 266.652 C 351.629 266.814,351.189 267.190,351.020 267.865 C 350.885 268.402,350.150 269.211,349.387 269.661 C 348.085 270.429,348.000 270.607,348.000 272.578 C 348.000 274.793,347.380 275.776,345.800 276.063 C 345.349 276.145,344.947 276.581,344.878 277.062 C 344.732 278.077,343.713 279.061,342.600 279.262 C 342.065 279.359,341.757 279.781,341.670 280.536 C 341.572 281.388,341.203 281.807,340.170 282.238 C 338.867 282.783,338.800 282.910,338.800 284.824 C 338.800 286.876,337.610 288.787,336.318 288.809 C 336.033 288.813,335.530 289.395,335.200 290.100 C 334.833 290.885,334.212 291.471,333.600 291.608 C 332.983 291.747,332.553 292.156,332.478 292.675 C 332.332 293.678,331.308 294.661,330.200 294.863 C 329.749 294.945,329.347 295.381,329.278 295.862 C 329.133 296.870,328.116 297.860,327.018 298.061 C 326.574 298.142,326.137 298.636,326.009 299.202 C 325.871 299.810,325.282 300.434,324.500 300.800 C 323.795 301.130,323.213 301.633,323.209 301.918 C 323.186 303.257,321.279 304.400,319.068 304.400 C 316.983 304.400,316.891 304.446,316.662 305.590 C 316.486 306.469,316.056 306.933,315.012 307.369 C 314.235 307.694,313.600 308.179,313.600 308.448 C 313.600 309.917,312.341 310.400,308.518 310.400 L 304.759 310.400 304.177 311.793 C 303.558 313.275,303.025 313.517,300.000 313.695 C 298.504 313.782,298.179 313.945,298.078 314.658 C 297.871 316.108,296.754 316.746,294.194 316.877 C 292.063 316.987,291.786 317.098,291.673 317.896 C 291.446 319.490,290.141 320.000,286.290 320.000 L 282.758 320.000 282.330 321.229 C 281.772 322.829,280.688 323.200,276.574 323.200 C 274.061 323.200,273.200 323.334,273.200 323.724 C 273.200 325.093,272.066 325.797,269.533 325.998 C 267.323 326.174,266.984 326.310,266.878 327.058 C 266.671 328.507,265.554 329.146,262.998 329.277 C 260.975 329.381,260.585 329.523,260.463 330.200 C 260.128 332.044,259.301 332.400,255.348 332.400 L 251.621 332.400 251.006 333.588 C 249.941 335.648,250.704 335.600,218.800 335.600 C 186.896 335.600,187.659 335.648,186.594 333.588 L 185.979 332.400 172.852 332.400 C 158.630 332.400,158.742 332.417,158.336 330.200 C 158.196 329.431,157.787 329.392,147.795 329.183 C 142.078 329.064,137.357 328.929,137.305 328.883 C 137.253 328.837,136.950 328.175,136.631 327.411 L 136.050 326.023 130.525 325.911 L 125.000 325.800 124.400 324.509 C 123.835 323.294,123.675 323.217,121.682 323.209 C 119.462 323.200,117.600 322.021,117.600 320.626 C 117.600 320.290,117.131 319.897,116.557 319.753 C 115.877 319.583,115.318 319.023,114.952 318.146 C 114.407 316.843,114.317 316.800,112.126 316.800 C 109.699 316.800,108.400 316.083,108.400 314.743 C 108.400 314.290,107.887 313.797,107.054 313.448 C 106.179 313.083,105.617 312.522,105.447 311.845 C 105.278 311.170,104.716 310.609,103.847 310.245 C 102.977 309.882,102.417 309.321,102.247 308.643 C 102.014 307.716,101.788 307.600,100.218 307.600 C 97.750 307.600,96.472 307.024,96.157 305.771 C 95.983 305.078,95.430 304.521,94.553 304.155 C 93.699 303.798,93.122 303.228,92.960 302.584 C 92.821 302.027,92.190 301.305,91.560 300.979 C 90.929 300.653,90.136 299.850,89.796 299.193 C 89.457 298.537,88.948 298.000,88.666 298.000 C 87.360 298.000,86.688 296.906,86.445 294.382 C 86.224 292.080,86.103 291.812,85.200 291.609 C 84.583 291.470,83.970 290.886,83.600 290.086 C 83.260 289.351,82.591 288.681,82.057 288.540 C 81.491 288.391,80.890 287.756,80.555 286.953 C 80.191 286.084,79.630 285.522,78.955 285.353 C 78.284 285.185,77.718 284.623,77.364 283.775 C 77.010 282.927,76.490 282.411,75.908 282.329 C 75.325 282.246,74.761 281.684,74.321 280.748 C 73.883 279.815,73.270 279.204,72.605 279.037 C 71.389 278.732,70.800 277.434,70.800 275.062 C 70.800 273.548,70.675 273.328,69.575 272.913 C 68.801 272.621,68.180 272.002,67.891 271.235 C 67.612 270.495,67.001 269.869,66.330 269.636 C 65.152 269.225,64.878 268.546,64.705 265.603 C 64.621 264.167,64.440 263.778,63.800 263.662 C 62.206 263.374,61.600 262.397,61.600 260.118 C 61.600 258.044,61.547 257.937,60.249 257.394 C 58.635 256.720,58.400 256.209,58.400 253.367 C 58.400 251.679,58.263 251.200,57.782 251.200 C 56.399 251.200,55.200 249.341,55.200 247.197 C 55.200 245.281,55.126 245.133,53.971 244.730 C 52.371 244.172,52.000 243.088,52.000 238.974 C 52.000 236.461,51.866 235.600,51.476 235.600 C 50.107 235.600,49.403 234.466,49.202 231.937 C 49.032 229.808,48.873 229.385,48.200 229.263 C 46.606 228.973,46.000 227.997,46.000 225.718 C 46.000 223.644,45.947 223.537,44.649 222.994 C 42.832 222.235,42.800 222.092,42.800 214.578 L 42.800 208.021 41.612 207.406 C 39.820 206.480,39.600 205.692,39.600 200.205 L 39.600 195.158 38.371 194.730 C 36.420 194.050,36.400 193.788,36.400 168.800 C 36.400 143.812,36.420 143.550,38.371 142.870 L 39.600 142.442 39.600 138.803 C 39.600 134.991,40.425 133.200,42.182 133.200 C 42.669 133.200,42.800 132.704,42.800 130.862 C 42.800 128.393,43.367 127.433,45.000 127.138 C 45.640 127.022,45.821 126.633,45.905 125.197 C 46.083 122.175,46.326 121.642,47.807 121.023 C 49.154 120.460,49.200 120.369,49.200 118.282 C 49.200 116.080,49.685 115.246,51.300 114.673 C 51.825 114.487,52.000 113.979,52.000 112.639 C 52.000 110.002,52.572 108.826,53.993 108.541 C 55.157 108.309,55.200 108.224,55.200 106.132 C 55.200 103.856,56.360 102.000,57.782 102.000 C 58.122 102.000,58.400 101.668,58.400 101.262 C 58.400 100.385,59.482 99.340,60.600 99.137 C 61.277 99.015,61.419 98.625,61.523 96.602 C 61.653 94.071,62.366 92.800,63.657 92.800 C 64.110 92.800,64.603 92.287,64.952 91.454 C 65.295 90.631,65.883 90.016,66.463 89.870 C 67.041 89.725,67.596 89.147,67.881 88.391 C 68.171 87.622,68.792 86.983,69.511 86.711 C 70.203 86.450,70.850 85.803,71.111 85.111 C 71.375 84.411,72.020 83.772,72.734 83.503 C 73.420 83.244,74.145 82.544,74.459 81.839 C 74.785 81.104,75.396 80.531,75.998 80.393 C 76.563 80.264,77.058 79.825,77.139 79.382 C 77.434 77.773,78.403 77.200,80.830 77.200 C 83.061 77.200,83.145 77.161,83.397 76.016 C 83.586 75.151,84.010 74.704,84.962 74.359 C 85.807 74.054,86.423 73.476,86.708 72.718 C 86.978 72.005,87.618 71.373,88.351 71.096 C 89.067 70.826,89.648 70.262,89.789 69.700 C 89.919 69.182,90.650 68.389,91.413 67.939 C 92.176 67.489,92.800 66.928,92.800 66.692 C 92.800 65.498,94.156 64.800,96.475 64.800 C 98.364 64.800,98.868 64.663,99.041 64.100 C 99.463 62.735,99.886 62.194,100.934 61.679 C 101.518 61.393,102.107 60.713,102.244 60.169 C 102.578 58.835,103.533 58.400,106.124 58.400 C 108.218 58.400,108.309 58.355,108.538 57.210 C 108.711 56.343,109.143 55.867,110.134 55.453 C 111.029 55.079,111.582 54.526,111.757 53.829 C 112.072 52.575,113.350 52.000,115.826 52.000 C 117.021 52.000,117.600 51.829,117.600 51.476 C 117.600 49.853,118.637 49.405,122.862 49.200 C 126.594 49.019,127.006 48.923,127.137 48.200 C 127.473 46.352,128.297 46.000,132.282 46.000 L 136.041 46.000 136.606 44.649 C 137.272 43.054,137.801 42.800,140.454 42.800 C 142.313 42.800,142.469 42.721,142.870 41.571 C 143.428 39.971,144.512 39.600,148.626 39.600 C 151.403 39.600,152.000 39.491,152.000 38.982 C 152.000 37.225,153.791 36.400,157.603 36.400 L 161.242 36.400 161.671 35.169 C 161.907 34.491,162.483 33.783,162.950 33.594 C 164.116 33.123,210.889 33.102,212.125 33.571 M176.127 58.300 C 175.554 59.915,174.720 60.400,172.518 60.400 C 170.431 60.400,170.340 60.446,169.777 61.793 C 169.098 63.418,168.661 63.562,164.004 63.700 C 160.966 63.789,160.594 63.884,160.463 64.600 C 160.166 66.234,159.207 66.800,156.738 66.800 C 154.896 66.800,154.400 66.931,154.400 67.418 C 154.400 69.175,152.609 70.000,148.797 70.000 L 145.158 70.000 144.730 71.229 C 144.172 72.829,143.088 73.200,138.974 73.200 C 136.461 73.200,135.600 73.334,135.600 73.724 C 135.600 75.093,134.466 75.797,131.937 75.998 C 129.808 76.168,129.385 76.327,129.263 77.000 C 129.061 78.114,128.076 79.132,127.062 79.278 C 126.581 79.347,126.145 79.749,126.063 80.200 C 125.774 81.787,124.795 82.400,122.548 82.400 C 120.593 82.400,120.371 82.497,119.806 83.588 C 119.011 85.125,118.073 85.600,115.832 85.600 C 114.143 85.600,113.970 85.697,113.448 86.946 C 113.083 87.821,112.522 88.383,111.845 88.553 C 111.159 88.725,110.607 89.288,110.223 90.207 C 109.820 91.171,109.382 91.600,108.800 91.600 C 108.218 91.600,107.780 92.029,107.377 92.993 C 106.993 93.912,106.441 94.475,105.755 94.647 C 105.079 94.817,104.518 95.378,104.155 96.247 C 103.798 97.101,103.228 97.678,102.584 97.840 C 102.027 97.979,101.306 98.607,100.982 99.235 C 100.209 100.729,99.256 101.200,97.005 101.200 C 95.308 101.200,95.124 101.299,94.736 102.413 C 94.461 103.202,93.850 103.819,92.989 104.179 C 92.117 104.543,91.619 105.051,91.532 105.666 C 91.448 106.262,90.928 106.817,90.094 107.200 C 89.350 107.542,88.682 108.205,88.540 108.743 C 88.391 109.309,87.756 109.910,86.953 110.245 C 86.084 110.609,85.522 111.170,85.353 111.845 C 85.183 112.522,84.621 113.083,83.746 113.448 C 82.477 113.978,82.400 114.124,82.400 115.973 C 82.400 118.598,82.143 119.130,80.551 119.794 C 79.253 120.337,79.200 120.444,79.200 122.518 C 79.200 124.797,78.594 125.773,77.000 126.063 C 76.323 126.185,76.181 126.575,76.077 128.590 C 75.946 131.138,75.568 131.880,74.116 132.432 C 73.328 132.732,73.200 133.062,73.200 134.808 C 73.200 136.941,71.998 138.800,70.618 138.800 C 70.154 138.800,70.000 139.241,70.000 140.574 C 70.000 143.069,69.452 144.234,68.048 144.723 C 66.896 145.125,66.834 145.262,66.720 147.671 C 66.602 150.157,66.576 150.208,65.100 150.902 L 63.600 151.606 63.600 155.341 C 63.600 159.301,63.246 160.126,61.400 160.464 C 60.626 160.606,60.600 160.927,60.600 170.400 C 60.600 179.873,60.626 180.194,61.400 180.336 C 63.249 180.675,63.600 181.497,63.600 185.482 L 63.600 189.241 64.951 189.806 C 66.773 190.566,66.800 190.694,66.800 198.433 C 66.800 204.270,66.885 205.200,67.418 205.200 C 68.801 205.200,70.000 207.059,70.000 209.203 C 70.000 211.119,70.074 211.267,71.229 211.670 C 72.829 212.228,73.200 213.312,73.200 217.426 C 73.200 219.939,73.334 220.800,73.724 220.800 C 75.093 220.800,75.797 221.934,75.998 224.463 C 76.168 226.592,76.327 227.015,77.000 227.137 C 78.627 227.433,79.200 228.395,79.200 230.830 C 79.200 233.069,79.235 233.144,80.403 233.401 C 81.926 233.735,82.400 234.628,82.400 237.163 C 82.400 238.994,82.509 239.236,83.588 239.794 C 85.129 240.591,85.600 241.527,85.600 243.795 C 85.600 245.497,85.696 245.675,86.829 246.070 C 88.234 246.560,88.796 247.711,88.809 250.126 C 88.816 251.618,88.958 251.865,90.109 252.400 C 90.926 252.780,91.448 253.342,91.532 253.934 C 91.620 254.555,92.120 255.058,93.025 255.436 C 94.471 256.041,94.718 256.589,94.895 259.597 C 94.979 261.033,95.160 261.422,95.800 261.538 C 96.908 261.738,97.932 262.722,98.078 263.725 C 98.153 264.243,98.585 264.655,99.200 264.795 C 99.805 264.932,100.414 265.502,100.741 266.239 C 101.055 266.944,101.780 267.644,102.466 267.903 C 103.180 268.172,103.825 268.811,104.089 269.511 C 104.350 270.203,104.997 270.850,105.689 271.111 C 106.389 271.375,107.028 272.020,107.297 272.734 C 107.559 273.427,108.254 274.142,108.972 274.459 C 110.124 274.966,110.212 275.161,110.400 277.596 C 110.569 279.794,110.723 280.215,111.400 280.338 C 112.490 280.535,113.600 281.578,113.600 282.404 C 113.600 282.829,114.087 283.222,114.900 283.452 C 115.880 283.728,116.294 284.137,116.583 285.109 C 116.952 286.355,117.041 286.400,119.101 286.400 C 121.317 286.400,123.200 287.566,123.200 288.938 C 123.200 289.255,123.662 289.629,124.226 289.771 C 124.896 289.939,125.454 290.510,125.832 291.414 C 126.398 292.771,126.460 292.800,128.743 292.800 C 131.200 292.800,132.400 293.506,132.400 294.952 C 132.400 295.360,132.895 295.814,133.613 296.064 C 134.411 296.343,135.019 296.951,135.392 297.844 C 135.937 299.146,136.044 299.200,138.103 299.200 C 140.407 299.200,141.451 299.727,141.671 301.000 C 141.799 301.743,142.202 301.814,147.341 302.000 C 153.130 302.209,154.400 302.685,154.400 304.644 C 154.400 305.103,156.107 305.200,164.226 305.200 C 174.732 305.200,175.275 305.292,175.937 307.192 L 176.358 308.400 189.346 308.400 C 203.745 308.400,203.404 308.358,204.194 310.249 L 204.759 311.600 218.948 311.600 L 233.136 311.600 233.401 310.397 C 233.770 308.715,234.621 308.400,238.795 308.400 L 242.442 308.400 242.870 307.171 C 243.368 305.743,244.519 305.200,247.047 305.200 C 248.684 305.200,248.879 305.094,249.263 303.992 C 249.804 302.440,250.668 302.000,253.174 302.000 C 254.577 302.000,255.200 301.839,255.200 301.476 C 255.200 299.853,256.237 299.405,260.462 299.200 C 264.194 299.019,264.606 298.923,264.737 298.200 C 265.072 296.355,265.899 296.000,269.859 296.000 L 273.594 296.000 274.298 294.500 C 274.992 293.024,275.043 292.998,277.529 292.880 C 279.938 292.766,280.075 292.704,280.477 291.552 C 281.027 289.973,282.127 289.600,286.226 289.600 C 289.003 289.600,289.600 289.491,289.600 288.982 C 289.600 287.607,291.459 286.400,293.576 286.400 C 295.487 286.400,295.618 286.331,296.158 285.040 C 296.574 284.042,297.055 283.607,297.963 283.408 C 298.776 283.230,299.200 282.894,299.200 282.430 C 299.200 281.154,300.519 280.400,302.752 280.400 C 304.748 280.400,304.866 280.340,305.408 279.044 C 305.775 278.164,306.390 277.542,307.155 277.276 C 307.929 277.006,308.382 276.543,308.468 275.934 C 308.552 275.340,309.086 274.775,309.948 274.370 C 310.729 274.001,311.510 273.225,311.806 272.521 C 312.121 271.771,312.713 271.208,313.356 271.047 C 314.030 270.878,314.592 270.316,314.955 269.447 C 315.318 268.577,315.879 268.017,316.557 267.847 C 317.484 267.614,317.600 267.388,317.600 265.818 C 317.600 263.350,318.176 262.072,319.429 261.757 C 320.126 261.582,320.679 261.029,321.053 260.134 C 321.467 259.143,321.943 258.711,322.810 258.538 C 323.933 258.313,324.000 258.191,324.000 256.369 C 324.000 253.952,324.629 252.530,325.830 252.228 C 326.341 252.100,326.993 251.518,327.279 250.934 C 327.794 249.886,328.335 249.463,329.700 249.041 C 330.263 248.868,330.400 248.364,330.400 246.475 C 330.400 244.010,331.102 242.800,332.531 242.800 C 333.076 242.800,333.200 242.388,333.200 240.582 C 333.200 238.255,334.345 236.400,335.782 236.400 C 336.291 236.400,336.400 235.803,336.400 233.026 C 336.400 228.912,336.771 227.828,338.371 227.270 L 339.600 226.842 339.600 206.221 C 339.600 187.888,339.531 185.600,338.982 185.600 C 337.003 185.600,336.400 183.922,336.400 178.418 C 336.400 173.978,336.308 173.200,335.782 173.200 C 333.995 173.200,333.200 171.420,333.200 167.418 C 333.200 163.974,333.128 163.600,332.462 163.600 C 331.155 163.600,330.400 162.300,330.400 160.048 C 330.400 158.053,330.339 157.934,329.049 157.394 C 327.453 156.728,327.200 156.200,327.200 153.533 C 327.200 151.687,327.109 151.496,326.029 151.089 C 324.598 150.548,324.000 149.332,324.000 146.960 C 324.000 145.314,323.896 145.122,322.787 144.736 C 321.989 144.457,321.381 143.849,321.008 142.956 C 320.632 142.057,320.172 141.600,319.643 141.600 C 318.410 141.600,317.600 140.074,317.600 137.750 C 317.600 135.813,317.523 135.651,316.414 135.265 C 315.145 134.822,314.881 134.196,314.705 131.203 C 314.621 129.767,314.440 129.378,313.800 129.262 C 312.687 129.061,311.668 128.077,311.522 127.062 C 311.453 126.581,311.051 126.145,310.600 126.063 C 309.525 125.867,308.400 124.826,308.400 124.026 C 308.400 123.667,307.850 123.168,307.175 122.913 C 306.421 122.629,305.781 122.003,305.511 121.289 C 305.250 120.597,304.603 119.950,303.911 119.689 C 303.197 119.419,302.571 118.779,302.287 118.025 C 302.032 117.350,301.533 116.800,301.174 116.800 C 299.911 116.800,299.200 115.452,299.200 113.056 C 299.200 111.233,299.060 110.731,298.500 110.559 C 297.143 110.139,296.595 109.716,296.096 108.701 C 295.819 108.137,295.061 107.490,294.410 107.264 C 293.661 107.002,293.135 106.482,292.975 105.842 C 292.835 105.287,292.115 104.475,291.374 104.037 C 290.632 103.600,289.914 102.798,289.778 102.256 C 289.627 101.653,289.147 101.173,288.544 101.022 C 288.002 100.886,287.189 100.150,286.739 99.387 C 285.971 98.085,285.793 98.000,283.822 98.000 C 281.607 98.000,280.624 97.380,280.337 95.800 C 280.255 95.349,279.819 94.947,279.338 94.878 C 278.323 94.732,277.339 93.713,277.138 92.600 C 277.043 92.076,276.621 91.757,275.913 91.675 C 275.097 91.581,274.713 91.215,274.337 90.175 C 273.854 88.842,273.774 88.800,271.701 88.800 C 269.457 88.800,267.600 87.631,267.600 86.218 C 267.600 85.754,267.159 85.600,265.826 85.600 C 263.319 85.600,262.167 85.053,261.670 83.629 C 261.395 82.839,260.970 82.400,260.483 82.400 C 259.587 82.400,258.542 81.328,258.338 80.200 C 258.222 79.560,257.833 79.379,256.397 79.295 C 253.375 79.117,252.842 78.874,252.223 77.393 L 251.641 76.000 247.882 76.000 C 243.963 76.000,243.327 75.743,242.673 73.900 C 242.456 73.286,241.836 73.200,237.639 73.200 C 232.090 73.200,231.058 72.916,230.470 71.229 L 230.042 70.000 226.403 70.000 C 222.591 70.000,220.800 69.175,220.800 67.418 C 220.800 66.890,219.990 66.800,215.262 66.800 C 209.351 66.800,208.698 66.593,208.338 64.600 C 208.222 63.960,207.833 63.779,206.397 63.695 C 203.375 63.517,202.842 63.274,202.223 61.793 C 201.660 60.446,201.569 60.400,199.482 60.400 C 197.280 60.400,196.446 59.915,195.873 58.300 C 195.646 57.660,194.806 57.600,186.000 57.600 C 177.194 57.600,176.354 57.660,176.127 58.300 M194.097 93.500 C 194.438 93.885,194.783 94.558,194.863 94.995 C 194.944 95.433,195.367 95.856,195.805 95.937 C 198.119 96.361,198.000 94.822,198.000 124.438 C 198.000 151.176,198.105 153.358,199.278 150.911 C 199.569 150.304,200.300 149.571,200.901 149.283 C 201.503 148.995,202.111 148.299,202.252 147.736 C 202.416 147.080,202.988 146.514,203.847 146.155 C 204.716 145.791,205.278 145.230,205.447 144.555 C 205.614 143.888,206.175 143.319,207.007 142.971 C 207.824 142.630,208.400 142.053,208.560 141.417 C 208.722 140.772,209.299 140.202,210.153 139.845 C 211.036 139.476,211.583 138.922,211.760 138.217 C 211.937 137.512,212.436 137.006,213.227 136.731 C 213.995 136.463,214.621 135.845,214.970 135.011 C 215.318 134.177,215.887 133.615,216.551 133.448 C 217.221 133.280,217.680 132.821,217.848 132.151 C 218.017 131.479,218.580 130.917,219.447 130.555 C 220.316 130.191,220.878 129.630,221.047 128.955 C 221.217 128.279,221.778 127.718,222.647 127.355 C 223.509 126.994,224.078 126.429,224.244 125.768 C 224.628 124.238,225.807 124.000,233.007 124.000 C 240.221 124.000,241.485 124.284,241.679 125.951 C 241.757 126.623,242.084 127.045,242.600 127.138 C 244.686 127.515,244.800 127.976,244.800 136.000 C 244.800 144.024,244.686 144.485,242.600 144.862 C 241.923 144.985,241.769 145.406,241.600 147.604 C 241.413 150.035,241.321 150.238,240.151 150.800 C 239.464 151.130,238.711 151.906,238.476 152.525 C 238.223 153.195,237.564 153.834,236.849 154.104 C 236.133 154.374,235.552 154.938,235.411 155.500 C 235.281 156.018,234.550 156.811,233.787 157.261 C 233.024 157.711,232.400 158.303,232.400 158.578 C 232.400 159.246,231.190 160.283,230.200 160.463 C 229.749 160.545,229.347 160.981,229.278 161.462 C 229.133 162.474,228.115 163.460,227.005 163.663 C 226.567 163.744,226.144 164.167,226.063 164.605 C 225.867 165.676,224.824 166.800,224.026 166.800 C 223.667 166.800,223.168 167.350,222.913 168.025 C 222.620 168.802,222.002 169.420,221.225 169.713 C 220.090 170.141,220.000 170.318,220.000 172.114 C 220.000 174.532,219.548 175.401,218.008 175.937 C 217.237 176.206,216.800 176.633,216.800 177.117 C 216.800 178.010,215.729 179.057,214.605 179.263 C 214.167 179.344,213.744 179.767,213.663 180.205 C 213.459 181.317,212.414 182.400,211.543 182.400 C 211.090 182.400,210.597 182.913,210.248 183.746 C 209.905 184.569,209.317 185.184,208.737 185.330 C 208.159 185.475,207.604 186.053,207.319 186.809 C 207.020 187.602,206.408 188.218,205.625 188.513 C 204.525 188.928,204.400 189.148,204.400 190.662 C 204.400 193.082,203.840 194.238,202.429 194.730 C 201.296 195.125,201.200 195.303,201.200 197.005 C 201.200 199.256,200.729 200.209,199.235 200.982 C 198.607 201.306,197.979 202.027,197.840 202.584 C 197.678 203.228,197.101 203.798,196.247 204.155 C 195.370 204.521,194.817 205.078,194.643 205.771 C 194.249 207.341,193.023 207.600,186.000 207.600 C 178.872 207.600,177.880 207.377,177.275 205.643 C 177.009 204.880,176.489 204.337,175.876 204.183 C 173.956 203.701,174.000 204.965,174.006 150.081 C 174.012 94.555,173.941 96.486,176.001 96.000 C 176.560 95.868,177.059 95.422,177.139 94.982 C 177.518 92.916,177.988 92.800,186.000 92.800 C 192.617 92.800,193.547 92.880,194.097 93.500 " stroke="none" fill="#fcfcfc" fill-rule="evenodd"></path><path id="path1" d="M162.800 36.000 L 161.533 37.600 158.243 37.600 C 154.759 37.600,154.231 37.814,153.063 39.700 C 152.403 40.765,152.270 40.800,148.856 40.800 L 145.331 40.800 143.895 42.400 C 142.624 43.816,142.252 44.000,140.663 44.000 C 139.046 44.000,138.741 44.159,137.600 45.600 L 136.333 47.200 132.995 47.200 C 129.539 47.200,128.941 47.443,127.983 49.231 C 127.625 49.900,127.115 50.000,124.062 50.000 C 120.344 50.000,119.842 50.195,118.663 52.100 C 118.078 53.044,117.719 53.200,116.123 53.200 C 114.323 53.200,114.170 53.299,111.200 56.400 C 108.310 59.417,108.037 59.600,106.435 59.600 C 104.763 59.600,100.000 63.414,100.000 64.754 C 100.000 65.433,98.568 66.000,96.853 66.000 C 95.436 66.000,95.009 66.253,93.126 68.209 C 90.657 70.775,88.423 73.020,86.967 74.400 C 86.619 74.730,85.577 75.765,84.651 76.700 C 83.200 78.165,82.735 78.400,81.280 78.400 C 80.024 78.400,79.414 78.624,78.896 79.273 C 78.513 79.754,77.777 80.519,77.260 80.973 C 76.742 81.428,76.022 82.142,75.660 82.560 C 75.297 82.978,74.663 83.631,74.250 84.010 C 73.838 84.390,73.232 84.972,72.905 85.305 C 72.175 86.046,70.537 87.684,69.655 88.556 C 69.295 88.912,67.984 90.237,66.742 91.501 C 65.500 92.766,64.105 94.113,63.642 94.496 C 63.038 94.996,62.800 95.652,62.800 96.822 C 62.800 98.589,62.235 100.000,61.528 100.000 C 60.210 100.000,56.400 104.925,56.400 106.627 C 56.400 108.139,56.218 108.477,54.800 109.600 C 53.329 110.765,53.200 111.023,53.200 112.800 C 53.200 114.577,53.071 114.835,51.600 116.000 C 50.132 117.163,50.000 117.425,50.000 119.186 C 50.000 120.909,49.857 121.214,48.600 122.173 C 47.370 123.111,47.200 123.457,47.200 125.020 C 47.200 126.801,46.962 127.195,44.860 128.896 C 44.225 129.410,44.000 130.035,44.000 131.287 C 44.000 132.755,43.785 133.179,42.400 134.445 L 40.800 135.908 40.800 139.320 L 40.800 142.733 39.200 144.000 L 37.600 145.267 37.600 168.800 L 37.600 192.333 39.200 193.600 L 40.800 194.867 40.800 199.880 L 40.800 204.892 42.400 206.355 L 44.000 207.818 44.000 214.275 L 44.000 220.733 45.600 222.000 C 47.027 223.130,47.200 223.455,47.200 225.005 C 47.200 226.754,47.703 227.599,49.231 228.417 C 49.845 228.745,50.000 229.267,50.000 231.009 C 50.000 233.118,50.052 233.223,51.600 234.200 L 53.200 235.210 53.200 238.771 L 53.200 242.333 54.800 243.600 C 56.271 244.765,56.400 245.023,56.400 246.800 C 56.400 248.577,56.529 248.835,58.000 250.000 C 59.471 251.165,59.600 251.423,59.600 253.200 C 59.600 254.977,59.729 255.235,61.200 256.400 C 62.635 257.536,62.800 257.850,62.800 259.438 C 62.800 260.767,63.014 261.381,63.660 261.904 C 65.762 263.605,66.000 263.999,66.000 265.780 C 66.000 267.340,66.171 267.690,67.384 268.615 C 68.146 269.196,68.874 270.002,69.002 270.406 C 69.130 270.811,69.857 271.509,70.618 271.957 C 71.883 272.704,72.000 272.933,72.000 274.655 C 72.000 276.335,72.183 276.721,73.700 278.246 C 74.635 279.185,75.580 280.145,75.800 280.378 C 76.020 280.611,78.135 282.685,80.500 284.987 C 82.865 287.289,84.800 289.341,84.800 289.547 C 84.800 289.752,85.430 290.293,86.200 290.747 C 87.475 291.499,87.600 291.736,87.600 293.401 C 87.600 296.110,97.737 306.400,100.406 306.400 C 101.983 306.400,106.393 310.197,110.096 314.745 C 110.620 315.389,111.237 315.600,112.596 315.600 C 114.413 315.600,115.809 316.703,119.750 321.250 C 120.221 321.793,120.941 322.000,122.360 322.000 C 124.177 322.000,124.382 322.103,125.147 323.400 L 125.973 324.800 131.153 324.800 L 136.333 324.800 137.600 326.400 L 138.867 328.000 148.606 328.000 L 158.346 328.000 159.253 329.300 C 159.753 330.015,160.350 330.732,160.581 330.894 C 160.811 331.056,166.666 331.191,173.591 331.194 L 186.182 331.200 187.645 332.800 L 189.108 334.400 218.920 334.400 L 248.733 334.400 250.000 332.800 L 251.267 331.200 254.801 331.200 L 258.335 331.200 259.175 329.840 C 260.136 328.285,260.681 328.002,262.733 327.994 C 264.461 327.987,264.746 327.818,265.947 326.100 C 266.778 324.909,267.034 324.800,268.988 324.800 C 271.002 324.800,271.167 324.722,271.947 323.400 L 272.773 322.000 276.353 322.000 L 279.933 322.000 281.200 320.400 L 282.467 318.800 285.863 318.800 L 289.259 318.800 290.695 317.200 C 291.952 315.799,292.348 315.600,293.870 315.600 C 295.166 315.600,295.785 315.381,296.304 314.740 C 298.003 312.641,298.400 312.400,300.166 312.400 C 301.749 312.400,302.064 312.234,303.200 310.800 L 304.467 309.200 307.839 309.200 L 311.210 309.200 314.162 306.200 C 316.838 303.480,317.259 303.200,318.680 303.200 C 320.395 303.200,321.103 302.770,322.137 301.100 C 322.512 300.495,323.090 300.000,323.423 300.000 C 323.755 300.000,324.381 299.401,324.813 298.668 C 325.245 297.935,326.019 297.111,326.532 296.837 C 327.045 296.562,327.775 295.811,328.155 295.169 C 328.535 294.526,328.976 294.000,329.137 294.000 C 329.297 294.000,330.502 292.919,331.814 291.597 C 335.983 287.398,336.187 287.197,336.900 286.593 C 337.355 286.208,337.600 285.430,337.600 284.374 C 337.600 282.877,337.853 282.494,340.800 279.527 C 342.560 277.755,344.000 276.165,344.000 275.992 C 344.000 275.820,344.630 275.307,345.400 274.853 C 346.684 274.095,346.800 273.872,346.800 272.146 C 346.800 270.317,346.888 270.181,350.000 267.200 C 353.089 264.241,353.200 264.071,353.200 262.301 C 353.200 260.639,353.350 260.348,354.800 259.200 C 356.268 258.037,356.400 257.775,356.400 256.014 C 356.400 254.291,356.543 253.986,357.800 253.027 L 359.200 251.959 359.200 248.580 C 359.200 245.029,359.221 244.981,361.540 243.104 L 362.400 242.408 362.400 206.238 L 362.400 170.067 360.800 168.800 L 359.200 167.533 359.200 162.587 L 359.200 157.641 357.800 156.573 L 356.400 155.505 356.400 151.986 L 356.400 148.467 354.800 147.200 C 353.323 146.030,353.200 145.782,353.200 143.971 C 353.200 142.118,353.112 141.954,351.600 141.000 C 350.055 140.025,350.000 139.915,350.000 137.829 C 350.000 135.785,349.913 135.598,348.400 134.400 C 346.970 133.267,346.800 132.947,346.800 131.382 C 346.800 129.742,345.743 128.000,344.747 128.000 C 344.581 128.000,344.141 127.484,343.768 126.854 C 343.396 126.224,342.576 125.404,341.946 125.032 C 340.931 124.432,340.800 124.129,340.800 122.377 C 340.800 120.994,340.590 120.216,340.100 119.787 C 335.146 115.452,334.400 114.537,334.400 112.787 C 334.400 111.109,334.268 110.933,329.600 106.384 C 326.960 103.811,324.800 101.520,324.800 101.293 C 324.800 101.065,324.170 100.507,323.400 100.053 C 322.128 99.302,322.000 99.062,322.000 97.417 L 322.000 95.607 311.799 85.403 C 301.826 75.427,301.563 75.200,299.980 75.200 C 298.446 75.200,298.126 74.961,293.825 70.600 C 289.367 66.079,289.258 66.000,287.478 66.000 C 285.843 66.000,285.544 65.844,284.400 64.400 C 283.264 62.966,282.949 62.800,281.366 62.800 C 279.651 62.800,278.668 62.237,277.745 60.725 C 277.555 60.414,276.815 59.752,276.100 59.253 C 275.385 58.754,274.800 58.094,274.800 57.787 C 274.800 56.948,273.470 56.400,271.436 56.400 C 269.885 56.400,269.518 56.239,268.937 55.300 C 267.769 53.414,267.241 53.200,263.757 53.200 L 260.467 53.200 259.200 51.600 L 257.933 50.000 252.780 50.000 C 248.107 50.000,247.590 49.929,247.217 49.231 C 246.259 47.443,245.661 47.200,242.205 47.200 L 238.867 47.200 237.600 45.600 L 236.333 44.000 231.366 44.000 C 225.984 44.000,226.496 44.179,224.200 41.500 C 223.778 41.007,223.010 40.800,221.609 40.800 C 219.869 40.800,219.533 40.661,218.937 39.700 C 217.890 38.009,217.192 37.600,215.357 37.600 C 213.863 37.600,213.520 37.414,212.400 36.000 L 211.133 34.400 187.600 34.400 L 164.067 34.400 162.800 36.000 M197.092 57.800 C 198.163 59.009,198.577 59.200,200.132 59.200 C 201.755 59.200,202.058 59.358,203.200 60.800 C 204.366 62.272,204.622 62.400,206.406 62.400 C 208.141 62.400,208.441 62.537,209.253 63.700 C 210.574 65.590,210.563 65.587,215.834 65.594 L 220.669 65.600 222.105 67.200 L 223.541 68.800 226.937 68.800 L 230.333 68.800 231.600 70.400 L 232.867 72.000 237.813 72.000 L 242.759 72.000 243.827 73.400 L 244.895 74.800 248.414 74.800 L 251.933 74.800 253.200 76.400 C 254.366 77.872,254.622 78.000,256.406 78.000 C 258.141 78.000,258.441 78.137,259.253 79.300 C 259.752 80.015,260.436 80.768,260.775 80.973 C 261.113 81.178,262.006 82.033,262.760 82.873 C 263.988 84.241,264.332 84.400,266.056 84.400 C 267.725 84.400,268.072 84.547,268.663 85.500 C 269.730 87.224,270.412 87.600,272.466 87.600 C 274.142 87.600,274.453 87.736,274.975 88.700 C 275.302 89.305,276.596 90.700,277.851 91.800 C 280.444 94.073,281.113 94.726,282.096 95.940 C 282.619 96.586,283.233 96.800,284.562 96.800 C 286.150 96.800,286.464 96.965,287.600 98.400 C 288.297 99.280,289.118 100.000,289.424 100.000 C 289.731 100.000,290.300 100.495,290.689 101.100 C 291.557 102.448,297.626 108.536,299.001 109.437 C 299.849 109.993,300.001 110.402,300.009 112.146 C 300.017 114.149,300.078 114.255,302.455 116.400 C 303.795 117.610,305.245 118.960,305.676 119.400 C 308.626 122.412,311.302 125.095,311.899 125.640 C 312.284 125.992,312.897 126.622,313.260 127.040 C 313.622 127.458,314.387 128.191,314.960 128.670 C 315.799 129.371,316.000 129.890,316.000 131.349 C 316.000 132.948,316.164 133.284,317.400 134.227 C 318.663 135.190,318.800 135.486,318.800 137.247 C 318.800 138.659,319.008 139.380,319.550 139.850 C 324.080 143.776,325.200 145.190,325.200 146.984 C 325.200 147.966,325.425 148.958,325.700 149.189 C 325.975 149.420,326.695 149.980,327.300 150.433 C 328.235 151.134,328.400 151.549,328.400 153.195 C 328.400 154.978,328.528 155.234,330.000 156.400 C 331.431 157.534,331.600 157.852,331.600 159.424 C 331.600 160.922,331.806 161.368,333.000 162.455 C 334.381 163.711,334.400 163.772,334.400 166.988 C 334.400 170.439,334.617 170.971,336.500 172.137 L 337.600 172.818 337.600 178.004 L 337.600 183.190 339.200 184.200 L 340.800 185.210 340.800 206.171 L 340.800 227.133 339.200 228.400 L 337.600 229.667 337.600 233.224 C 337.600 236.673,337.566 236.802,336.500 237.463 C 334.814 238.507,334.400 239.207,334.400 241.012 C 334.400 242.399,334.170 242.881,333.000 243.945 C 331.841 245.000,331.600 245.498,331.600 246.836 C 331.600 248.566,331.035 250.000,330.354 250.000 C 329.014 250.000,325.200 254.763,325.200 256.435 C 325.200 258.037,325.017 258.310,322.000 261.200 C 318.986 264.088,318.800 264.364,318.800 265.960 C 318.800 267.739,318.900 267.622,310.294 275.906 C 310.126 276.068,308.850 277.415,307.458 278.900 C 305.082 281.434,304.820 281.600,303.181 281.600 C 301.529 281.600,301.284 281.760,298.587 284.600 C 295.837 287.497,295.675 287.600,293.875 287.600 C 292.134 287.600,291.943 287.707,291.000 289.200 L 289.990 290.800 286.461 290.800 L 282.931 290.800 281.495 292.400 C 280.242 293.795,279.837 294.001,278.329 294.006 C 276.327 294.013,276.076 294.150,274.853 295.900 L 273.946 297.200 270.405 297.200 L 266.865 297.200 266.000 298.600 L 265.135 300.000 261.644 300.000 C 257.946 300.000,257.441 300.197,256.263 302.100 C 255.673 303.052,255.324 303.200,253.667 303.200 C 251.612 303.200,250.930 303.576,249.863 305.300 C 249.276 306.248,248.921 306.400,247.300 306.400 C 245.614 306.400,245.265 306.567,243.955 308.000 L 242.492 309.600 239.080 309.600 L 235.667 309.600 234.400 311.200 L 233.133 312.800 218.800 312.800 L 204.467 312.800 203.200 311.200 L 201.933 309.600 189.255 309.600 C 175.992 309.600,174.800 309.451,174.800 307.791 C 174.800 306.599,173.203 306.400,163.636 306.400 L 154.018 306.400 153.337 305.300 C 152.104 303.308,151.753 303.200,146.533 303.200 L 141.618 303.200 140.937 302.100 C 139.884 300.399,139.191 300.000,137.289 300.000 C 135.519 300.000,134.076 298.867,130.704 294.833 C 130.188 294.215,129.542 294.000,128.204 294.000 C 126.867 294.000,126.206 293.780,125.650 293.150 C 125.238 292.683,124.603 292.007,124.241 291.650 C 122.440 289.874,121.635 289.044,121.045 288.355 C 120.609 287.844,119.872 287.600,118.768 287.600 C 117.279 287.600,116.877 287.345,114.193 284.700 C 112.574 283.105,110.789 281.409,110.225 280.930 C 109.441 280.265,109.200 279.684,109.200 278.463 C 109.200 276.309,108.904 275.674,107.580 274.990 C 106.962 274.670,106.341 274.045,106.200 273.600 C 106.059 273.155,105.408 272.515,104.754 272.176 C 104.100 271.838,103.365 271.121,103.119 270.583 C 102.874 270.045,102.072 269.250,101.337 268.816 C 100.602 268.382,100.000 267.766,100.000 267.446 C 100.000 267.127,99.404 266.497,98.675 266.046 C 97.946 265.596,97.106 264.771,96.807 264.214 C 96.509 263.656,96.142 263.200,95.991 263.200 C 94.925 263.200,93.600 261.116,93.600 259.439 C 93.600 257.858,93.433 257.513,92.216 256.585 C 91.454 256.004,90.726 255.198,90.598 254.794 C 90.470 254.389,89.743 253.691,88.982 253.243 C 87.702 252.487,87.600 252.281,87.600 250.447 C 87.600 248.615,87.480 248.373,86.000 247.200 C 84.529 246.035,84.400 245.777,84.400 244.000 C 84.400 242.223,84.271 241.965,82.800 240.800 C 81.329 239.635,81.200 239.377,81.200 237.600 C 81.200 235.823,81.071 235.565,79.600 234.400 C 78.165 233.264,78.000 232.950,78.000 231.362 C 78.000 230.033,77.786 229.419,77.140 228.896 C 74.997 227.162,74.800 226.820,74.800 224.840 C 74.800 223.023,74.697 222.818,73.400 222.053 L 72.000 221.227 72.000 217.647 L 72.000 214.067 70.400 212.800 C 68.959 211.659,68.800 211.354,68.800 209.737 C 68.800 208.148,68.616 207.776,67.200 206.505 L 65.600 205.069 65.600 198.568 L 65.600 192.067 64.000 190.800 L 62.400 189.533 62.400 186.162 C 62.400 183.196,62.297 182.709,61.540 182.096 C 59.047 180.078,59.200 180.830,59.200 170.633 C 59.200 160.134,59.168 160.332,61.040 159.175 L 62.400 158.335 62.400 154.796 C 62.400 151.403,62.445 151.224,63.500 150.433 C 64.105 149.980,64.825 149.420,65.100 149.189 C 65.375 148.958,65.600 147.945,65.600 146.938 C 65.600 145.313,65.779 144.944,67.200 143.645 C 68.633 142.335,68.800 141.986,68.800 140.300 C 68.800 138.679,68.952 138.324,69.900 137.737 C 71.593 136.689,72.000 135.992,72.000 134.144 C 72.000 132.667,72.186 132.299,73.400 131.373 C 74.649 130.420,74.800 130.103,74.800 128.429 C 74.800 126.411,75.181 125.727,76.900 124.663 C 77.857 124.070,78.000 123.728,78.000 122.024 C 78.000 120.219,78.124 119.969,79.600 118.800 C 81.027 117.670,81.200 117.345,81.200 115.794 C 81.200 113.965,81.152 114.021,89.808 105.600 C 90.148 105.270,91.474 103.875,92.756 102.500 C 94.964 100.133,95.186 100.000,96.928 100.000 C 98.113 100.000,98.952 99.777,99.284 99.373 C 103.908 93.750,114.117 84.400,115.632 84.400 C 117.059 84.400,117.498 84.175,118.755 82.800 C 120.069 81.362,120.410 81.200,122.122 81.200 C 123.857 81.200,124.097 81.081,124.813 79.868 C 125.245 79.135,126.049 78.295,126.599 78.000 C 127.150 77.706,127.600 77.342,127.600 77.191 C 127.600 76.064,129.684 74.800,131.541 74.800 C 133.380 74.800,133.580 74.700,134.347 73.400 L 135.173 72.000 138.753 72.000 L 142.333 72.000 143.600 70.400 L 144.867 68.800 148.263 68.800 L 151.659 68.800 153.095 67.200 C 154.388 65.759,154.720 65.600,156.433 65.600 C 158.164 65.600,158.410 65.478,159.175 64.240 C 160.237 62.522,160.582 62.400,164.399 62.400 L 167.533 62.400 168.800 60.800 C 169.963 59.332,170.225 59.200,171.986 59.200 C 173.709 59.200,174.014 59.057,174.973 57.800 L 176.041 56.400 185.947 56.400 L 195.853 56.400 197.092 57.800 M178.896 94.860 C 178.013 95.951,177.151 96.813,176.060 97.696 L 175.200 98.392 175.200 150.028 L 175.200 201.664 177.568 204.032 L 179.936 206.400 186.019 206.400 L 192.102 206.400 195.402 203.100 C 197.217 201.285,198.994 199.568,199.351 199.284 C 199.790 198.935,200.000 198.139,200.000 196.818 C 200.000 195.020,200.125 194.768,201.600 193.600 C 203.080 192.427,203.200 192.185,203.200 190.353 C 203.200 188.514,203.300 188.314,204.600 187.547 C 205.370 187.093,206.000 186.554,206.000 186.351 C 206.000 185.929,211.163 180.800,211.587 180.800 C 211.740 180.800,212.112 180.339,212.414 179.775 C 212.715 179.211,213.424 178.477,213.987 178.144 C 214.551 177.811,215.416 176.922,215.910 176.169 C 216.403 175.416,217.069 174.800,217.390 174.800 C 218.251 174.800,218.800 173.489,218.800 171.436 C 218.800 169.899,218.968 169.509,219.888 168.909 C 220.486 168.519,221.903 167.232,223.036 166.048 C 224.169 164.864,225.379 163.604,225.726 163.248 C 226.073 162.892,226.772 162.171,227.279 161.646 C 227.785 161.121,228.613 160.311,229.118 159.846 C 232.297 156.916,233.905 155.269,234.500 154.330 C 234.873 153.742,235.530 153.149,235.960 153.013 C 236.390 152.876,237.109 152.143,237.557 151.382 C 238.006 150.622,238.621 150.000,238.925 150.000 C 239.986 150.000,240.800 148.582,240.800 146.733 C 240.800 145.180,240.995 144.751,242.200 143.655 L 243.600 142.381 243.600 136.090 L 243.600 129.800 241.476 127.500 L 239.352 125.200 232.872 125.200 C 226.729 125.200,226.356 125.245,225.696 126.058 C 224.271 127.815,201.574 150.400,201.233 150.400 C 201.038 150.400,200.507 151.030,200.053 151.800 C 199.128 153.368,198.437 153.546,197.462 152.469 C 196.860 151.803,196.800 149.322,196.800 125.065 L 196.800 98.392 195.940 97.696 C 194.849 96.813,193.987 95.951,193.104 94.860 C 192.029 93.532,179.971 93.532,178.896 94.860 " stroke="none" fill="#1c34dc" fill-rule="evenodd"></path><path id="path2" d="" stroke="none" fill="#c4100ec" fill-rule="evenodd"></path><path id="path3" d="" stroke="none" fill="#c4100ec" fill-rule="evenodd"></path><path id="path4" d="" stroke="none" fill="#c4100ec" fill-rule="evenodd"></path></g></svg>
